HIERARCHY
ROOT Hips
{
	OFFSET 0.00000 0.00000 0.00000
	CHANNELS 6 Xposition Yposition Zposition Zrotation Yrotation Xrotation 
	JOINT LHipJoint
	{
		OFFSET 0 0 0
		CHANNELS 3 Zrotation Yrotation Xrotation
		JOINT LeftHip
		{
			OFFSET 3.13874 -1.57224 1.49786
			CHANNELS 3 Zrotation Yrotation Xrotation
			JOINT LeftKnee
			{
				OFFSET 2.10955 -5.79594 0.00000
				CHANNELS 3 Zrotation Yrotation Xrotation
				JOINT LeftAnkle
				{
					OFFSET 2.41843 -6.64458 0.00000
					CHANNELS 3 Zrotation Yrotation Xrotation
					JOINT LeftToe
					{
						OFFSET 0.04713 -0.12948 1.66229
						CHANNELS 3 Zrotation Yrotation Xrotation
						End Site
						{
							OFFSET 0.00000 -0.00000 0.85167
						}
					}
				}
			}
		}
	}
	JOINT RHipJoint
	{
		OFFSET 0 0 0
		CHANNELS 3 Zrotation Yrotation Xrotation
		JOINT RightHip
		{
			OFFSET -3.13988 -1.57224 1.49786
			CHANNELS 3 Zrotation Yrotation Xrotation
			JOINT RightKnee
			{
				OFFSET -2.15006 -5.90725 0.00000
				CHANNELS 3 Zrotation Yrotation Xrotation
				JOINT RightAnkle
				{
					OFFSET -2.34496 -6.44273 0.00000
					CHANNELS 3 Zrotation Yrotation Xrotation
					JOINT RightToe
					{
						OFFSET -0.08699 -0.23900 1.55223
						CHANNELS 3 Zrotation Yrotation Xrotation
						End Site
						{
							OFFSET -0.00000 -0.00000 0.80281
						}
					}
				}
			}
		}
	}
	JOINT lowerback
	{
		OFFSET 0 0 0
		CHANNELS 3 Zrotation Yrotation Xrotation
		JOINT Chest
		{
			OFFSET 0.01292 1.96517 -0.16495
			CHANNELS 3 Zrotation Yrotation Xrotation
			JOINT Chest2
			{
				OFFSET 0.02122 1.88666 0.19706
				CHANNELS 3 Zrotation Yrotation Xrotation
				JOINT lowerneck
				{
					OFFSET 0 0 0
					CHANNELS 3 Zrotation Yrotation Xrotation
					JOINT Neck
					{
						OFFSET -0.01683 1.81591 0.07903
						CHANNELS 3 Zrotation Yrotation Xrotation
						JOINT Head
						{
							OFFSET 0.00815 1.74013 -0.47700
							CHANNELS 3 Zrotation Yrotation Xrotation
							End Site
							{
								OFFSET -0.00204 1.83225 -0.16933
							}
						}
					}
				}
				JOINT LeftCollar
				{
					OFFSET 0 0 0
					CHANNELS 3 Zrotation Yrotation Xrotation
					JOINT LeftShoulder
					{
						OFFSET 3.38482 1.41533 0.19802
CHANNELS 3 Zrotation Xrotation Yrotation
						JOINT LeftElbow
						{
OFFSET 0 -4.327120 0.000000
CHANNELS 3 Zrotation Xrotation Yrotation
							JOINT LeftWrist
							{
OFFSET 0 -3.285870 -0.000000
CHANNELS 3 Zrotation Xrotation Yrotation
								JOINT lhand
								{
									OFFSET 0 0 0
CHANNELS 3 Zrotation Xrotation Yrotation
									JOINT LFingers
									{
OFFSET 0 -0.433160 -0.000000
CHANNELS 3 Zrotation Xrotation Yrotation
										End Site
										{
OFFSET 0 -0.349220 -0.000000
										}
									}
								}
								JOINT LThumb
								{
OFFSET 0 0.000000 0.000000
CHANNELS 3 Zrotation Xrotation Yrotation
									End Site
									{
OFFSET 0 -0.354560 0.354560
									}
								}
							}
						}
					}
				}
				JOINT RightCollar
				{
					OFFSET 0 0 0
					CHANNELS 3 Zrotation Yrotation Xrotation
					JOINT RightShoulder
					{
						OFFSET -3.09725 1.62858 -0.14144
CHANNELS 3 Zrotation Xrotation Yrotation
						JOINT RightElbow
						{
OFFSET 0 -4.291040 0.000000
CHANNELS 3 Zrotation Xrotation Yrotation
							JOINT RightWrist
							{
OFFSET 0 -3.227200 -0.000000
CHANNELS 3 Zrotation Xrotation Yrotation
								JOINT rhand
								{
									OFFSET 0 0 0
CHANNELS 3 Zrotation Xrotation Yrotation
									JOINT RFingers
									{
OFFSET 0 -0.543620 -0.000000
CHANNELS 3 Zrotation Xrotation Yrotation
										End Site
										{
OFFSET 0 -0.438280 -0.000000
										}
									}
								}
								JOINT RThumb
								{
OFFSET 0 0.000000 0.000000
CHANNELS 3 Zrotation Xrotation Yrotation
									End Site
									{
OFFSET 0 -0.444970 0.444970
									}
								}
							}
						}
					}
				}
			}
		}
	}
}
MOTION
Frames: 5
Frame Time: 0.008333333333333333
10.015700 15.662800 4.495400 -173.141000 -43.903000 -175.341000 0.000000 0.000000 0.000000 0.825700 -32.459300 -10.468800 0.165400 2.620000 7.222500 2.340500 15.655800 -37.859800 9.436000 -17.080200 -57.585900 0.000000 0.000000 0.000000 46.979700 35.671900 23.370500 -0.355100 3.828700 -10.595200 -11.869500 -14.895800 -69.827000 -2.989400 -10.677900 31.201000 5.398900 2.622100 7.786600 2.629000 4.222700 -9.644400 -0.876900 1.368200 -14.904700 -4.358000 -4.877100 -16.477500 -4.745500 -5.504800 30.526900 -2.065700 -4.027500 12.948400 0.000000 0.000000 0.000000 6.506400 17.343800 -13.539400 18.696500 -29.039800 4.882700 30.593800 27.923400 -30.803000 0.000000 0.000000 0.000000 -7.125000 0.000000 0.000000 -1.026600 64.683500 0.489000 0.000000 0.000000 0.000000 -22.465000 20.467400 38.873400 -26.691100 -37.883000 -9.308800 -8.529600 -8.720500 16.801400 0.000000 0.000000 0.000000 7.125000 0.000000 -0.000000 18.125300 46.130500 -0.522800
10.009730 15.662153 4.493609 -173.136025 -43.865787 -175.328563 0.000000 0.000000 0.000000 0.857987 -32.019961 -10.928834 0.188335 2.789547 7.693678 2.124487 15.972058 -37.004107 9.639526 -17.200395 -58.274235 0.000000 0.000000 0.000000 47.034126 35.680109 23.456816 -0.358334 3.845665 -10.642860 -11.880544 -14.825205 -69.838890 -3.032831 -10.747699 31.433828 5.319748 2.597772 7.753517 2.641587 4.176831 -9.619276 -0.809042 1.358897 -14.861020 -4.362179 -4.853668 -16.514265 -4.709083 -5.472214 30.488742 -2.045153 -4.006058 12.941883 0.000000 0.000000 0.000000 6.412025 17.403002 -13.418011 18.734558 -29.087460 4.901157 30.977369 27.930017 -29.934372 0.000000 0.000000 0.000000 -7.125000 0.000000 0.000000 -0.142550 63.860940 0.082297 0.000000 0.000000 0.000000 -22.894289 20.202135 39.094686 -27.428837 -38.575962 -9.768884 -8.684072 -6.922849 16.951047 0.000000 0.000000 0.000000 7.125000 0.000000 0.000000 18.041571 46.293032 -0.594489
10.003760 15.661507 4.491818 -173.131050 -43.828575 -175.316125 0.000000 0.000000 0.000000 0.890275 -31.580623 -11.388869 0.211269 2.959093 8.164857 1.908475 16.288316 -36.148414 9.843051 -17.320590 -58.962570 0.000000 0.000000 0.000000 47.088552 35.688317 23.543131 -0.361567 3.862629 -10.690520 -11.891589 -14.754611 -69.850780 -3.076263 -10.817497 31.666656 5.240597 2.573445 7.720433 2.654173 4.130962 -9.594153 -0.741183 1.349594 -14.817340 -4.366358 -4.830236 -16.551030 -4.672667 -5.439628 30.450584 -2.024607 -3.984616 12.935366 0.000000 0.000000 0.000000 6.317650 17.462204 -13.296622 18.772617 -29.135120 4.919614 31.360939 27.936633 -29.065745 0.000000 0.000000 0.000000 -7.125000 0.000000 0.000000 0.741500 63.038381 -0.324406 0.000000 0.000000 0.000000 -23.323578 19.936870 39.315972 -28.166573 -39.268924 -10.228968 -8.838545 -5.125197 17.100693 0.000000 0.000000 0.000000 7.125000 0.000000 0.000000 17.957843 46.455564 -0.666178
9.998036 15.660860 4.491160 -173.152177 -43.820074 -175.273646 0.000000 0.000000 0.000000 0.918179 -31.177728 -11.926864 0.240705 3.151146 8.700255 1.777367 16.244911 -35.397523 10.013137 -17.416111 -59.530837 0.000000 0.000000 0.000000 47.120865 35.683721 23.603689 -0.363373 3.872157 -10.717250 -11.910070 -14.720903 -69.891678 -3.104378 -10.861982 31.815958 5.124312 2.536559 7.666123 2.668385 4.061453 -9.563218 -0.645647 1.333987 -14.756176 -4.369503 -4.812123 -16.574104 -4.639008 -5.415168 30.400360 -2.005439 -3.966670 12.920673 0.000000 0.000000 0.000000 6.216183 17.513772 -13.223891 18.827420 -29.203613 4.946394 31.531015 27.765561 -28.818144 0.000000 0.000000 0.000000 -7.125000 0.000000 0.000000 1.052837 62.817148 -0.454084 0.000000 0.000000 0.000000 -23.801919 19.579215 39.518987 -28.989904 -40.000792 -10.758296 -8.582874 -3.983785 16.633844 0.000000 0.000000 0.000000 7.125000 0.000000 0.000000 18.017330 45.977566 -0.448285
9.992315 15.660213 4.490513 -173.173569 -43.811865 -175.230861 0.000000 0.000000 0.000000 0.946039 -30.775205 -12.465652 0.270206 3.343429 9.236307 1.647122 16.197848 -34.647697 10.182882 -17.511382 -60.097883 0.000000 0.000000 0.000000 47.152954 35.678995 23.663986 -0.365164 3.881610 -10.743766 -11.928626 -14.687571 -69.932871 -3.132337 -10.906210 31.964411 5.007649 2.499545 7.611598 2.682614 3.991704 -9.532224 -0.549829 1.318316 -14.694835 -4.372637 -4.794064 -16.597038 -4.605377 -5.390791 30.350014 -1.986286 -3.948761 12.905897 0.000000 0.000000 0.000000 6.114644 17.565263 -13.151654 18.882393 -29.272317 4.973259 31.698919 27.592681 -28.576858 0.000000 0.000000 0.000000 -7.125000 0.000000 0.000000 1.358349 62.602031 -0.580946 0.000000 0.000000 0.000000 -24.280759 19.220620 39.721816 -29.814105 -40.733056 -11.288328 -8.323032 -2.849047 16.160726 0.000000 0.000000 0.000000 7.125000 0.000000 0.000000 18.078273 45.493055 -0.227446
